# xmcd
#
# Track frame offsets: 
#        150
#        2124
#        30479
#        71489
#        93484
#        123140
#        160659
#        199253
#        210299
#        237063
#        249752
#        269963
#        300564
#
# Disc length: 4254 seconds
#
# Revision: 0
# Processed by: cddbd v1.5.2PL0 Copyright (c) Steve Scherf et al.
# Submitted via: ExactAudioCopy v1.3
#
DISCID=a1109c0d
DTITLE=Tom Waits - Minneapolis ('75)
DYEAR=2017
DGENRE=Blues
TTITLE0=Introduction
TTITLE1=Emotional Weather Report
TTITLE2=Eggs and Sausage (In a Cadillac With Susan Michelson)
TTITLE3=Better Off Without a Wife
TTITLE4=Semi Suite
TTITLE5=Spare Parts
TTITLE6=The Ghosts of Saturday Night - (Looking for the Heart of Satur
TTITLE6=day Night)
TTITLE7=New Coat of Paint
TTITLE8=Warm Beer and Cold Women
TTITLE9=Virginia Avenue
TTITLE10=San Diego Serenade
TTITLE11=Putnam County
TTITLE12=Ol' 55
EXTD=
EXTT0=
EXTT1=
EXTT2=
EXTT3=
EXTT4=
EXTT5=
EXTT6=
EXTT7=
EXTT8=
EXTT9=
EXTT10=
EXTT11=
EXTT12=
PLAYORDER=
